<svg height="2206" width="720" xmlns="http://www.w3.org/2000/svg">
<rect height="2206" fill="#555" width="720"></rect>
<text fill="#7f7" font-family="Courier New" font-size="12" xml:space="preserve">
<tspan x="10" y="26"></tspan>
<tspan x="10" y="42">&gt; npmdoc-pm2@0.0.1 test /home/travis/build/npmdoc/node-npmdoc-pm2</tspan>
<tspan x="10" y="58">&gt; (set -e; export PORT=$(utility2 shServerPortRandom); utility2 test test.js)</tspan>
<tspan x="10" y="74"></tspan>
<tspan x="10" y="90"></tspan>
<tspan x="10" y="106">[MODE_BUILD=npmTest] - 2017-03-17T21:43:27Z - npm-testing /home/travis/build/npmdoc/node-npmdoc-\</tspan>
<tspan x="10" y="122">pm2</tspan>
<tspan x="10" y="138"></tspan>
<tspan x="10" y="154"></tspan>
<tspan x="10" y="170">covering $ /home/travis/.nvm/versions/node/v7.7.3/bin/node /home/travis/build/npmdoc/node-npmdoc\</tspan>
<tspan x="10" y="186">-pm2/test.js</tspan>
<tspan x="10" y="202">merging file:///home/travis/build/npmdoc/node-npmdoc-pm2/tmp/build/test-report.json to test-repo\</tspan>
<tspan x="10" y="218">rt</tspan>
<tspan x="10" y="234">&gt; server listening on http-port 51773</tspan>
<tspan x="10" y="250"></tspan>
<tspan x="10" y="266">  Usage:  [cmd] app</tspan>
<tspan x="10" y="282"></tspan>
<tspan x="10" y="298"></tspan>
<tspan x="10" y="314">  Commands:</tspan>
<tspan x="10" y="330"></tspan>
<tspan x="10" y="346">    *                               </tspan>
<tspan x="10" y="362">    start [options] &lt;file|json_file&gt;  start target config file/script in development mode</tspan>
<tspan x="10" y="378"></tspan>
<tspan x="10" y="394">  Options:</tspan>
<tspan x="10" y="410"></tspan>
<tspan x="10" y="426">    -h, --help     output usage information</tspan>
<tspan x="10" y="442">    -V, --version  output the version number</tspan>
<tspan x="10" y="458"></tspan>
<tspan x="10" y="474">2017-03-17 21:43:29: created apidoc file:///home/travis/build/npmdoc/node-npmdoc-pm2/tmp/build/a\</tspan>
<tspan x="10" y="490">pidoc.html</tspan>
<tspan x="10" y="506"></tspan>
<tspan x="10" y="522">2017-03-17 21:43:29: </tspan>
<tspan x="10" y="538">browserTest - created electron entry-page /home/travis/build/npmdoc/node-npmdoc-pm2/tmp/electron\</tspan>
<tspan x="10" y="554">.15ade39b8eb0.e0fcc9005cd88.html</tspan>
<tspan x="10" y="570"></tspan>
<tspan x="10" y="586">Xlib:  extension "RANDR" missing on display ":99.0".</tspan>
<tspan x="10" y="602">merging file:///home/travis/build/npmdoc/node-npmdoc-pm2/tmp/build/test-report.json to test-repo\</tspan>
<tspan x="10" y="618">rt</tspan>
<tspan x="10" y="634">Xlib:  extension "RANDR" missing on display ":99.0".</tspan>
<tspan x="10" y="650">[4398:0317/214330:WARNING:audio_manager.cc(314)] Multiple instances of AudioManager detected</tspan>
<tspan x="10" y="666">[4398:0317/214330:WARNING:audio_manager.cc(275)] Multiple instances of AudioManager detected</tspan>
<tspan x="10" y="682">2017-03-17 21:43:30: [node test-case 1 of 6 passed] - testCase_buildLib_default</tspan>
<tspan x="10" y="698">2017-03-17 21:43:30: [node test-case 2 of 6 passed] - testCase_buildReadme_default</tspan>
<tspan x="10" y="714">2017-03-17 21:43:30: [node test-case 3 of 6 passed] - testCase_buildTest_default</tspan>
<tspan x="10" y="730">2017-03-17 21:43:30: </tspan>
<tspan x="10" y="746">browserTest - created electron entry-page /home/travis/build/npmdoc/node-npmdoc-pm2/tmp/electron\</tspan>
<tspan x="10" y="762">.15ade39bc6d0.f238d6736013e.html</tspan>
<tspan x="10" y="778"></tspan>
<tspan x="10" y="794">2017-03-17 21:43:30: (node:4380) DeprecationWarning: node --debug is deprecated. Please use node\</tspan>
<tspan x="10" y="810"> --inspect instead.</tspan>
<tspan x="10" y="826">[4429:0317/214330:ERROR:sandbox_linux.cc(343)] InitializeSandbox() called with multiple threads \</tspan>
<tspan x="10" y="842">in process gpu-process. </tspan>
<tspan x="10" y="858">[4398:0317/214330:ERROR:browser_gpu_channel_host_factory.cc(131)] Failed to create channel.</tspan>
<tspan x="10" y="874">2017-03-17 21:43:30: Web interface listening on  0.0.0.0:9615</tspan>
<tspan x="10" y="890">Xlib:  extension "RANDR" missing on display ":99.0".</tspan>
<tspan x="10" y="906">&gt; server listening on http-port 60462</tspan>
<tspan x="10" y="922"></tspan>
<tspan x="10" y="938">browserTest - opened url file:///home/travis/build/npmdoc/node-npmdoc-pm2/tmp/build/apidoc.html</tspan>
<tspan x="10" y="954"></tspan>
<tspan x="10" y="970">merging file:///home/travis/build/npmdoc/node-npmdoc-pm2/tmp/build/test-report.json to test-repo\</tspan>
<tspan x="10" y="986">rt</tspan>
<tspan x="10" y="1002">Xlib:  extension "RANDR" missing on display ":99.0".</tspan>
<tspan x="10" y="1018">[4453:0317/214331:WARNING:audio_manager.cc(314)] Multiple instances of AudioManager detected</tspan>
<tspan x="10" y="1034">[4453:0317/214331:WARNING:audio_manager.cc(275)] Multiple instances of AudioManager detected</tspan>
<tspan x="10" y="1050">[4492:0317/214331:ERROR:sandbox_linux.cc(343)] InitializeSandbox() called with multiple threads \</tspan>
<tspan x="10" y="1066">in process gpu-process. </tspan>
<tspan x="10" y="1082"></tspan>
<tspan x="10" y="1098">browserTest - opened url http://127.0.0.1:51773?modeTest=1</tspan>
<tspan x="10" y="1114"></tspan>
<tspan x="10" y="1130">[4453:0317/214333:INFO:CONSOLE(203)] "----------|-----------|-----------|-----------|-----------\</tspan>
<tspan x="10" y="1146">|</tspan>
<tspan x="10" y="1162">File      |   % Stmts |% Branches |   % Funcs |   % Lines |</tspan>
<tspan x="10" y="1178">----------|-----------|-----------|-----------|-----------|</tspan>
<tspan x="10" y="1194">----------|-----------|-----------|-----------|-----------|</tspan>
<tspan x="10" y="1210">All files |       100 |       100 |       100 |       100 |</tspan>
<tspan x="10" y="1226">----------|-----------|-----------|-----------|-----------|</tspan>
<tspan x="10" y="1242">", source: file:///home/travis/build/npmdoc/node-npmdoc-pm2/tmp/electron.15ade39bc6d0.f238d67360\</tspan>
<tspan x="10" y="1258">13e.html (203)</tspan>
<tspan x="10" y="1274">[4453:0317/214333:INFO:CONSOLE(203)] "created coverage file:///tmp/build/coverage.html/index.htm\</tspan>
<tspan x="10" y="1290">l", source: file:///home/travis/build/npmdoc/node-npmdoc-pm2/tmp/electron.15ade39bc6d0.f238d6736\</tspan>
<tspan x="10" y="1306">013e.html (203)</tspan>
<tspan x="10" y="1322">2017-03-17 21:43:35: [node test-case 4 of 6 passed] - testCase_buildApp_default</tspan>
<tspan x="10" y="1338"></tspan>
<tspan x="10" y="1354">browserTest - created screen-capture file:///home/travis/build/npmdoc/node-npmdoc-pm2/tmp/build/\</tspan>
<tspan x="10" y="1370">screen-capture.npmTest.browser._2Fhome_2Ftravis_2Fbuild_2Fnpmdoc_2Fnode-npmdoc-pm2_2Ftmp_2Fbuild\</tspan>
<tspan x="10" y="1386">_2Fapidoc.html.png</tspan>
<tspan x="10" y="1402"></tspan>
<tspan x="10" y="1418">2017-03-17 21:43:35: </tspan>
<tspan x="10" y="1434">browserTest - exit-code 0 - file:///home/travis/build/npmdoc/node-npmdoc-pm2/tmp/build/apidoc.ht\</tspan>
<tspan x="10" y="1450">ml</tspan>
<tspan x="10" y="1466"></tspan>
<tspan x="10" y="1482">2017-03-17 21:43:35: [node test-case 5 of 6 passed] - testCase_buildApidoc_default</tspan>
<tspan x="10" y="1498"></tspan>
<tspan x="10" y="1514">browserTest - created screen-capture file:///home/travis/build/npmdoc/node-npmdoc-pm2/tmp/build/\</tspan>
<tspan x="10" y="1530">screen-capture.npmTest.browser..png</tspan>
<tspan x="10" y="1546"></tspan>
<tspan x="10" y="1562">2017-03-17 21:43:36: </tspan>
<tspan x="10" y="1578">browserTest - exit-code 0 - http://127.0.0.1:51773?modeTest=1</tspan>
<tspan x="10" y="1594"></tspan>
<tspan x="10" y="1610">2017-03-17 21:43:36: </tspan>
<tspan x="10" y="1626">browserTest - merged coverage from /home/travis/build/npmdoc/node-npmdoc-pm2/tmp/coverage.npmTes\</tspan>
<tspan x="10" y="1642">t.browser.%2F.json</tspan>
<tspan x="10" y="1658"></tspan>
<tspan x="10" y="1674">2017-03-17 21:43:36: </tspan>
<tspan x="10" y="1690">browserTest - merging test-report from /home/travis/build/npmdoc/node-npmdoc-pm2/tmp/test-report\</tspan>
<tspan x="10" y="1706">.npmTest.browser.%2F.json</tspan>
<tspan x="10" y="1722"></tspan>
<tspan x="10" y="1738">2017-03-17 21:43:36: [node test-case 6 of 6 passed] - testCase_webpage_default</tspan>
<tspan x="10" y="1754">2017-03-17 21:43:37: ------------------------|-----------|-----------|-----------|-----------|</tspan>
<tspan x="10" y="1770">File                    |   % Stmts |% Branches |   % Funcs |   % Lines |</tspan>
<tspan x="10" y="1786">------------------------|-----------|-----------|-----------|-----------|</tspan>
<tspan x="10" y="1802">   node-npmdoc-pm2/     |       100 |       100 |       100 |       100 |</tspan>
<tspan x="10" y="1818">      example.js        |       100 |       100 |       100 |       100 |</tspan>
<tspan x="10" y="1834">      lib.npmdoc_pm2.js |       100 |       100 |       100 |       100 |</tspan>
<tspan x="10" y="1850">      test.js           |       100 |       100 |       100 |       100 |</tspan>
<tspan x="10" y="1866">------------------------|-----------|-----------|-----------|-----------|</tspan>
<tspan x="10" y="1882">All files               |       100 |       100 |       100 |       100 |</tspan>
<tspan x="10" y="1898">------------------------|-----------|-----------|-----------|-----------|</tspan>
<tspan x="10" y="1914"></tspan>
<tspan x="10" y="1930">2017-03-17 21:43:37: created coverage file:///home/travis/build/npmdoc/node-npmdoc-pm2/tmp/build\</tspan>
<tspan x="10" y="1946">/coverage.html/index.html</tspan>
<tspan x="10" y="1962">merging file:///home/travis/build/npmdoc/node-npmdoc-pm2/tmp/build/test-report.json to test-repo\</tspan>
<tspan x="10" y="1978">rt</tspan>
<tspan x="10" y="1994"></tspan>
<tspan x="10" y="2010">-------------------------------------------------------</tspan>
<tspan x="10" y="2026">| test-report - buildNpmdoc - node - linux v7.7.3 - 2017-03-17T21:43:16.928Z</tspan>
<tspan x="10" y="2042">|   18514 ms            0 failed        6 passed      |</tspan>
<tspan x="10" y="2058">-------------------------------------------------------</tspan>
<tspan x="10" y="2074"></tspan>
<tspan x="10" y="2090">created test-report file:///home/travis/build/npmdoc/node-npmdoc-pm2/tmp/build/test-report.html</tspan>
<tspan x="10" y="2106"></tspan>
<tspan x="10" y="2122"></tspan>
<tspan x="10" y="2138">npmTest - 0 failed tests</tspan>
<tspan x="10" y="2154"></tspan>
<tspan x="10" y="2170"></tspan>
<tspan x="10" y="2186">[MODE_BUILD=npmTest] - 2017-03-17T21:43:38Z - EXIT_CODE - 0</tspan>
</text>
</svg>
