<svg height="2254" width="720" xmlns="http://www.w3.org/2000/svg">
<rect height="2254" fill="#555" width="720"></rect>
<text fill="#7f7" font-family="Courier New" font-size="12" xml:space="preserve">
<tspan x="10" y="26"></tspan>
<tspan x="10" y="42">&gt; npmdoc-pm2@0.0.2 test /home/travis/build/npmdoc/node-npmdoc-pm2</tspan>
<tspan x="10" y="58">&gt; (set -e; export PORT=$(utility2 shServerPortRandom); utility2 test test.js)</tspan>
<tspan x="10" y="74"></tspan>
<tspan x="10" y="90"></tspan>
<tspan x="10" y="106">[MODE_BUILD=npmTest] - 2017-04-07T16:09:19Z - npm-testing /home/travis/build/npmdoc/node-npmdoc-\</tspan>
<tspan x="10" y="122">pm2</tspan>
<tspan x="10" y="138"></tspan>
<tspan x="10" y="154"></tspan>
<tspan x="10" y="170">covering $ /home/travis/.nvm/versions/node/v6.10.2/bin/node /home/travis/build/npmdoc/node-npmdo\</tspan>
<tspan x="10" y="186">c-pm2/test.js</tspan>
<tspan x="10" y="202">merging file:///home/travis/build/npmdoc/node-npmdoc-pm2/tmp/build/test-report.json to test-repo\</tspan>
<tspan x="10" y="218">rt</tspan>
<tspan x="10" y="234">&gt; server listening on http-port 50616</tspan>
<tspan x="10" y="250"></tspan>
<tspan x="10" y="266">  Usage:  [cmd] app</tspan>
<tspan x="10" y="282"></tspan>
<tspan x="10" y="298"></tspan>
<tspan x="10" y="314">  Commands:</tspan>
<tspan x="10" y="330"></tspan>
<tspan x="10" y="346">    *                               </tspan>
<tspan x="10" y="362">    start [options] &lt;file|json_file&gt;  start target config file/script in development mode</tspan>
<tspan x="10" y="378"></tspan>
<tspan x="10" y="394">  Options:</tspan>
<tspan x="10" y="410"></tspan>
<tspan x="10" y="426">    -h, --help     output usage information</tspan>
<tspan x="10" y="442">    -V, --version  output the version number</tspan>
<tspan x="10" y="458"></tspan>
<tspan x="10" y="474">2017-04-07 16:09:21: created apidoc file:///home/travis/build/npmdoc/node-npmdoc-pm2/tmp/build/a\</tspan>
<tspan x="10" y="490">pidoc.html</tspan>
<tspan x="10" y="506"></tspan>
<tspan x="10" y="522">2017-04-07 16:09:21: </tspan>
<tspan x="10" y="538">browserTest - created electron entry-page /home/travis/build/npmdoc/node-npmdoc-pm2/tmp/electron\</tspan>
<tspan x="10" y="554">.15b492d5bec0.3a4b35f26c05f.html</tspan>
<tspan x="10" y="570"></tspan>
<tspan x="10" y="586">Xlib:  extension "RANDR" missing on display ":99.0".</tspan>
<tspan x="10" y="602">merging file:///home/travis/build/npmdoc/node-npmdoc-pm2/tmp/build/test-report.json to test-repo\</tspan>
<tspan x="10" y="618">rt</tspan>
<tspan x="10" y="634">Xlib:  extension "RANDR" missing on display ":99.0".</tspan>
<tspan x="10" y="650">[4797:0407/160921:WARNING:audio_manager.cc(314)] Multiple instances of AudioManager detected</tspan>
<tspan x="10" y="666">[4797:0407/160921:WARNING:audio_manager.cc(275)] Multiple instances of AudioManager detected</tspan>
<tspan x="10" y="682">[4813:0407/160921:ERROR:sandbox_linux.cc(343)] InitializeSandbox() called with multiple threads \</tspan>
<tspan x="10" y="698">in process gpu-process. </tspan>
<tspan x="10" y="714">[4797:0407/160922:ERROR:browser_gpu_channel_host_factory.cc(131)] Failed to create channel.</tspan>
<tspan x="10" y="730">2017-04-07 16:09:22: [node test-case 1 of 6 passed] - testCase_buildLib_default</tspan>
<tspan x="10" y="746">2017-04-07 16:09:22: [node test-case 2 of 6 passed] - testCase_buildReadme_default</tspan>
<tspan x="10" y="762">2017-04-07 16:09:22: [node test-case 3 of 6 passed] - testCase_buildTest_default</tspan>
<tspan x="10" y="778">2017-04-07 16:09:22: </tspan>
<tspan x="10" y="794">browserTest - created electron entry-page /home/travis/build/npmdoc/node-npmdoc-pm2/tmp/electron\</tspan>
<tspan x="10" y="810">.15b492d5f740.97baf3ef1a84a.html</tspan>
<tspan x="10" y="826"></tspan>
<tspan x="10" y="842">Xlib:  extension "RANDR" missing on display ":99.0".</tspan>
<tspan x="10" y="858">2017-04-07 16:09:22: Web interface listening on  0.0.0.0:9615</tspan>
<tspan x="10" y="874"></tspan>
<tspan x="10" y="890">browserTest - opened url /home/travis/build/npmdoc/node-npmdoc-pm2/tmp/build/apidoc.html</tspan>
<tspan x="10" y="906"></tspan>
<tspan x="10" y="922">&gt; server listening on http-port 43559</tspan>
<tspan x="10" y="938">merging file:///home/travis/build/npmdoc/node-npmdoc-pm2/tmp/build/test-report.json to test-repo\</tspan>
<tspan x="10" y="954">rt</tspan>
<tspan x="10" y="970">Xlib:  extension "RANDR" missing on display ":99.0".</tspan>
<tspan x="10" y="986">[4841:0407/160923:WARNING:audio_manager.cc(314)] Multiple instances of AudioManager detected</tspan>
<tspan x="10" y="1002">[4841:0407/160923:WARNING:audio_manager.cc(275)] Multiple instances of AudioManager detected</tspan>
<tspan x="10" y="1018">[4884:0407/160923:ERROR:sandbox_linux.cc(343)] InitializeSandbox() called with multiple threads \</tspan>
<tspan x="10" y="1034">in process gpu-process. </tspan>
<tspan x="10" y="1050">[4841:0407/160923:ERROR:browser_gpu_channel_host_factory.cc(131)] Failed to create channel.</tspan>
<tspan x="10" y="1066"></tspan>
<tspan x="10" y="1082">browserTest - opened url http://127.0.0.1:50616?modeTest=1</tspan>
<tspan x="10" y="1098"></tspan>
<tspan x="10" y="1114">[4841:0407/160925:INFO:CONSOLE(250)] "----------|-----------|-----------|-----------|-----------\</tspan>
<tspan x="10" y="1130">|</tspan>
<tspan x="10" y="1146">File      |   % Stmts |% Branches |   % Funcs |   % Lines |</tspan>
<tspan x="10" y="1162">----------|-----------|-----------|-----------|-----------|</tspan>
<tspan x="10" y="1178">----------|-----------|-----------|-----------|-----------|</tspan>
<tspan x="10" y="1194">All files |       100 |       100 |       100 |       100 |</tspan>
<tspan x="10" y="1210">----------|-----------|-----------|-----------|-----------|</tspan>
<tspan x="10" y="1226">", source: file:///home/travis/build/npmdoc/node-npmdoc-pm2/tmp/electron.15b492d5f740.97baf3ef1a\</tspan>
<tspan x="10" y="1242">84a.html (250)</tspan>
<tspan x="10" y="1258">[4841:0407/160925:INFO:CONSOLE(250)] "created coverage file:///tmp/build/coverage.html/index.htm\</tspan>
<tspan x="10" y="1274">l", source: file:///home/travis/build/npmdoc/node-npmdoc-pm2/tmp/electron.15b492d5f740.97baf3ef1\</tspan>
<tspan x="10" y="1290">a84a.html (250)</tspan>
<tspan x="10" y="1306">2017-04-07 16:09:27: [node test-case 4 of 6 passed] - testCase_buildApp_default</tspan>
<tspan x="10" y="1322"></tspan>
<tspan x="10" y="1338">browserTest - created screenCapture file:///home/travis/build/npmdoc/node-npmdoc-pm2/tmp/build/s\</tspan>
<tspan x="10" y="1354">creenCapture.npmTest.browser._2Fhome_2Ftravis_2Fbuild_2Fnpmdoc_2Fnode-npmdoc-pm2_2Ftmp_2Fbuild_2\</tspan>
<tspan x="10" y="1370">Fapidoc.html.png</tspan>
<tspan x="10" y="1386"></tspan>
<tspan x="10" y="1402">browserTest - created screenCapture file:///home/travis/build/npmdoc/node-npmdoc-pm2/tmp/build/s\</tspan>
<tspan x="10" y="1418">creenCapture.npmTest.browser._2Fhome_2Ftravis_2Fbuild_2Fnpmdoc_2Fnode-npmdoc-pm2_2Ftmp_2Fbuild_2\</tspan>
<tspan x="10" y="1434">Fapidoc.html.html</tspan>
<tspan x="10" y="1450">2017-04-07 16:09:37: </tspan>
<tspan x="10" y="1466">browserTest - exit-code 0 - /home/travis/build/npmdoc/node-npmdoc-pm2/tmp/build/apidoc.html</tspan>
<tspan x="10" y="1482"></tspan>
<tspan x="10" y="1498">2017-04-07 16:09:37: [node test-case 5 of 6 passed] - testCase_buildApidoc_default</tspan>
<tspan x="10" y="1514"></tspan>
<tspan x="10" y="1530">browserTest - created screenCapture file:///home/travis/build/npmdoc/node-npmdoc-pm2/tmp/build/s\</tspan>
<tspan x="10" y="1546">creenCapture.npmTest.browser..png</tspan>
<tspan x="10" y="1562"></tspan>
<tspan x="10" y="1578">browserTest - created screenCapture file:///home/travis/build/npmdoc/node-npmdoc-pm2/tmp/build/s\</tspan>
<tspan x="10" y="1594">creenCapture.npmTest.browser..html</tspan>
<tspan x="10" y="1610">2017-04-07 16:09:38: </tspan>
<tspan x="10" y="1626">browserTest - exit-code 0 - http://127.0.0.1:50616?modeTest=1</tspan>
<tspan x="10" y="1642"></tspan>
<tspan x="10" y="1658">2017-04-07 16:09:38: </tspan>
<tspan x="10" y="1674">browserTest - merged coverage from /home/travis/build/npmdoc/node-npmdoc-pm2/tmp/coverage.npmTes\</tspan>
<tspan x="10" y="1690">t.browser.%2F.json</tspan>
<tspan x="10" y="1706"></tspan>
<tspan x="10" y="1722">2017-04-07 16:09:38: </tspan>
<tspan x="10" y="1738">browserTest - merging test-report from /home/travis/build/npmdoc/node-npmdoc-pm2/tmp/test-report\</tspan>
<tspan x="10" y="1754">.npmTest.browser.%2F.json</tspan>
<tspan x="10" y="1770"></tspan>
<tspan x="10" y="1786">2017-04-07 16:09:38: [node test-case 6 of 6 passed] - testCase_webpage_default</tspan>
<tspan x="10" y="1802">2017-04-07 16:09:39: ------------------------|-----------|-----------|-----------|-----------|</tspan>
<tspan x="10" y="1818">File                    |   % Stmts |% Branches |   % Funcs |   % Lines |</tspan>
<tspan x="10" y="1834">------------------------|-----------|-----------|-----------|-----------|</tspan>
<tspan x="10" y="1850">   node-npmdoc-pm2/     |       100 |       100 |       100 |       100 |</tspan>
<tspan x="10" y="1866">      example.js        |       100 |       100 |       100 |       100 |</tspan>
<tspan x="10" y="1882">      lib.npmdoc_pm2.js |       100 |       100 |       100 |       100 |</tspan>
<tspan x="10" y="1898">      test.js           |       100 |       100 |       100 |       100 |</tspan>
<tspan x="10" y="1914">------------------------|-----------|-----------|-----------|-----------|</tspan>
<tspan x="10" y="1930">All files               |       100 |       100 |       100 |       100 |</tspan>
<tspan x="10" y="1946">------------------------|-----------|-----------|-----------|-----------|</tspan>
<tspan x="10" y="1962"></tspan>
<tspan x="10" y="1978">2017-04-07 16:09:39: created coverage file:///home/travis/build/npmdoc/node-npmdoc-pm2/tmp/build\</tspan>
<tspan x="10" y="1994">/coverage.html/index.html</tspan>
<tspan x="10" y="2010">merging file:///home/travis/build/npmdoc/node-npmdoc-pm2/tmp/build/test-report.json to test-repo\</tspan>
<tspan x="10" y="2026">rt</tspan>
<tspan x="10" y="2042"></tspan>
<tspan x="10" y="2058">-------------------------------------------------------</tspan>
<tspan x="10" y="2074">| test-report - buildNpmdoc - node - linux v6.10.2 - 2017-04-07T16:08:57.292Z</tspan>
<tspan x="10" y="2090">|   39740 ms            0 failed        6 passed      |</tspan>
<tspan x="10" y="2106">-------------------------------------------------------</tspan>
<tspan x="10" y="2122"></tspan>
<tspan x="10" y="2138">created test-report file:///home/travis/build/npmdoc/node-npmdoc-pm2/tmp/build/test-report.html</tspan>
<tspan x="10" y="2154"></tspan>
<tspan x="10" y="2170"></tspan>
<tspan x="10" y="2186">npmTest - 0 failed tests</tspan>
<tspan x="10" y="2202"></tspan>
<tspan x="10" y="2218"></tspan>
<tspan x="10" y="2234">[MODE_BUILD=npmTest] - 2017-04-07T16:09:40Z - EXIT_CODE - 0</tspan>
</text>
</svg>
